<svg width="311" height="316" viewBox="0 0 311 316" fill="none" xmlns="http://www.w3.org/2000/svg">
<path d="M244.996 195.139L244.784 195.765L245.103 196.344L256.17 216.44L256.178 216.454L256.186 216.468C258.093 219.762 258.795 223.617 258.173 227.372C257.55 231.127 255.642 234.549 252.774 237.052L252.763 237.061L221.955 264.441C221.954 264.441 221.953 264.442 221.953 264.442C219.792 266.341 217.17 267.638 214.349 268.204C211.528 268.769 208.608 268.583 205.881 267.664L205.872 267.661C204.18 267.103 202.591 266.274 201.166 265.205C201.164 265.204 201.163 265.203 201.161 265.201L182.999 251.311L182.416 250.866L181.707 251.052C177.383 252.187 172.989 253.034 168.554 253.588L167.816 253.681L167.442 254.324L155.886 274.235L155.884 274.239C153.963 277.577 150.929 280.132 147.314 281.459C143.699 282.785 139.732 282.797 136.109 281.493L136.095 281.489L136.081 281.484L96.0475 267.942L96.0339 267.937L96.0202 267.933C92.3494 266.769 89.205 264.351 87.1372 261.102C85.0695 257.854 84.2103 253.981 84.7099 250.163L84.7106 250.158L87.6152 227.32L87.7086 226.585L87.1816 226.064C84.0213 222.94 81.0724 219.61 78.3546 216.094L77.9047 215.512L77.169 215.511L54.2172 215.494C54.2153 215.494 54.2133 215.494 54.2114 215.494C52.4302 215.478 50.6636 215.173 48.9807 214.589L48.9713 214.586C46.2466 213.661 43.8131 212.036 41.9147 209.874C40.0164 207.711 38.72 205.088 38.1557 202.267L38.1543 202.26L38.1529 202.253L29.6125 161.554L29.611 161.547L29.6095 161.541C28.7769 157.752 29.3135 153.791 31.124 150.361C32.9345 146.93 35.9017 144.252 39.4992 142.801L39.5112 142.797L39.523 142.792L60.3738 133.965L60.9941 133.702L61.2099 133.064L65.5997 120.087L65.8114 119.461L65.4928 118.883L54.4258 98.7867L54.4181 98.7726L54.41 98.7587C52.5029 95.4645 51.8004 91.6098 52.4229 87.8546C53.0451 84.1008 54.9527 80.68 57.8189 78.1777C57.82 78.1767 57.8211 78.1758 57.8221 78.1749L89.3091 51.0247L89.3144 51.0201L89.3198 51.0154C91.481 49.116 94.1038 47.8183 96.9249 47.2525C99.7461 46.6867 102.666 46.8727 105.393 47.792L105.441 47.808L105.489 47.8208C107.178 48.267 108.785 48.9799 110.249 49.9326L127.913 64.0116L128.501 64.4804L129.228 64.2895C133.552 63.1547 137.946 62.3073 142.381 61.753L143.119 61.6608L143.493 61.0175L155.049 41.1067L155.051 41.102C156.972 37.7645 160.006 35.209 163.621 33.8828C167.236 32.5566 171.203 32.5442 174.826 33.8478L174.84 33.8527L174.854 33.8573L214.548 47.2849L214.562 47.2895L214.576 47.2938C218.246 48.4577 221.391 50.8755 223.459 54.1241C225.526 57.3727 226.386 61.2451 225.886 65.0633L225.885 65.0687L222.981 87.9061L222.887 88.6412L223.414 89.1621C226.574 92.2861 229.523 95.6169 232.241 99.1327L232.691 99.7147L233.427 99.7152L256.379 99.7322C256.381 99.7322 256.383 99.7322 256.385 99.7322C258.166 99.7481 259.932 100.054 261.615 100.638L261.624 100.641C264.349 101.565 266.783 103.191 268.681 105.353C270.579 107.515 271.876 110.138 272.44 112.96L272.441 112.967L272.443 112.974L280.983 153.672L280.986 153.686L280.99 153.701C281.858 157.472 281.365 161.43 279.598 164.873C277.831 168.316 274.905 171.023 271.336 172.517C271.335 172.518 271.334 172.518 271.333 172.519L250.233 181.257L249.604 181.518L249.386 182.162L247.177 188.693L244.996 195.139ZM209.551 253.084L210.519 253.824L211.441 253.028L242.935 225.872L243.86 225.075L243.267 224.008L227.684 195.974C231.954 188.019 234.868 179.408 236.305 170.494L265.488 158.266L266.631 157.787L266.377 156.574L257.836 115.876L257.589 114.698L256.385 114.684L224.818 114.323C220.039 106.701 214.085 99.8829 207.175 94.1214L211.232 62.7957L211.39 61.5762L210.225 61.1822L170.191 47.6398L169.024 47.2449L168.41 48.3135L152.507 75.996C143.483 76.2825 134.57 78.0789 126.139 81.3107L101.044 62.1421L100.077 61.4029L99.1543 62.1981L67.6607 89.3541L66.7359 90.1515L67.3292 91.2188L82.9123 119.252C78.6416 127.207 75.7277 135.819 74.2905 144.733L45.1074 156.961L43.9646 157.44L44.219 158.652L52.7594 199.351L53.0067 200.529L54.2103 200.543L85.7776 200.903C90.5566 208.525 96.5112 215.344 103.421 221.105L99.3635 252.431L99.2056 253.65L100.37 254.044L140.404 267.587L141.572 267.982L142.186 266.913L158.089 239.231C167.113 238.944 176.026 237.148 184.457 233.916L209.551 253.084Z" stroke="black" stroke-width="3"/>
<path d="M138.578 207.088L138.571 207.086L138.564 207.083C128.779 203.773 120.196 197.637 113.9 189.449C107.603 181.261 103.876 171.39 103.19 161.084C102.503 150.778 104.888 140.5 110.043 131.55C115.198 122.599 122.892 115.378 132.15 110.8C141.409 106.222 151.818 104.492 162.06 105.83C172.301 107.167 181.917 111.511 189.69 118.313C197.462 125.115 203.044 134.069 205.728 144.044C208.411 154.018 208.077 164.563 204.768 174.348L204.765 174.355L204.763 174.362C202.626 180.897 199.206 186.941 194.705 192.138C190.203 197.335 184.709 201.582 178.546 204.63C172.382 207.677 165.673 209.465 158.81 209.887C151.947 210.309 145.069 209.357 138.578 207.088ZM180.053 129.349C176.309 126.149 171.955 123.739 167.255 122.265C162.626 120.583 157.703 119.855 152.785 120.125C147.854 120.396 143.03 121.664 138.604 123.852C134.178 126.041 130.242 129.105 127.034 132.858C123.833 136.602 121.423 140.956 119.949 145.656C118.267 150.286 117.539 155.208 117.809 160.127C118.08 165.057 119.348 169.881 121.537 174.307C123.725 178.733 126.789 182.669 130.542 185.878C134.287 189.078 138.64 191.488 143.341 192.962C147.97 194.644 152.892 195.372 157.811 195.102C162.741 194.831 167.565 193.563 171.992 191.375C176.418 189.186 180.354 186.122 183.562 182.369C186.763 178.624 189.172 174.271 190.646 169.571C192.328 164.941 193.057 160.019 192.786 155.1C192.516 150.17 191.248 145.346 189.059 140.92C186.87 136.494 183.807 132.557 180.053 129.349Z" stroke="black" stroke-width="3"/>
</svg>
